<svg width="20" height="23" viewBox="0 0 20 23" fill="none" xmlns="http://www.w3.org/2000/svg">
<path d="M15.5833 16.3245C15.9166 16.6936 15.9166 17.2473 15.5833 17.6164C15.4166 17.8009 15.25 17.8932 15 17.8932C14.75 17.8932 14.5833 17.8009 14.4166 17.6164L9.99996 12.7258L5.58329 17.6164C5.41663 17.8009 5.24996 17.8932 4.99996 17.8932C4.74996 17.8932 4.58329 17.8009 4.41663 17.6164C4.08329 17.2473 4.08329 16.6936 4.41663 16.3245L8.83329 11.4339L4.41663 6.5433C4.08329 6.17419 4.08329 5.62054 4.41663 5.25144C4.74996 4.88233 5.24996 4.88233 5.58329 5.25144L9.99996 10.1421L14.4166 5.25144C14.75 4.88233 15.25 4.88233 15.5833 5.25144C15.9166 5.62054 15.9166 6.17419 15.5833 6.5433L11.1666 11.4339L15.5833 16.3245Z" fill="black"/>
<mask id="mask0_355_3715" style="mask-type:alpha" maskUnits="userSpaceOnUse" x="4" y="4" width="12" height="14">
<path d="M15.5833 16.3245C15.9166 16.6936 15.9166 17.2473 15.5833 17.6164C15.4166 17.8009 15.25 17.8932 15 17.8932C14.75 17.8932 14.5833 17.8009 14.4166 17.6164L9.99996 12.7258L5.58329 17.6164C5.41663 17.8009 5.24996 17.8932 4.99996 17.8932C4.74996 17.8932 4.58329 17.8009 4.41663 17.6164C4.08329 17.2473 4.08329 16.6936 4.41663 16.3245L8.83329 11.4339L4.41663 6.5433C4.08329 6.17419 4.08329 5.62054 4.41663 5.25144C4.74996 4.88233 5.24996 4.88233 5.58329 5.25144L9.99996 10.1421L14.4166 5.25144C14.75 4.88233 15.25 4.88233 15.5833 5.25144C15.9166 5.62054 15.9166 6.17419 15.5833 6.5433L11.1666 11.4339L15.5833 16.3245Z" fill="white"/>
</mask>
<g mask="url(#mask0_355_3715)">
<rect y="0.36084" width="20" height="22.1462" fill="white"/>
</g>
</svg>
